<svg width="39" height="25" viewBox="0 0 39 25" fill="none" xmlns="http://www.w3.org/2000/svg">
<path d="M37.4583 11V1.75C37.4583 1.55109 37.3431 1.36032 37.138 1.21967C36.9329 1.07902 36.6547 1 36.3646 1H2.09375C1.80367 1 1.52547 1.07902 1.32035 1.21967C1.11523 1.36032 1 1.55109 1 1.75V11M37.4583 11H1M37.4583 11L36.0182 14.23C35.7902 14.7421 35.3285 15.1904 34.7011 15.509C34.0736 15.8277 33.3136 15.9998 32.5328 16H30.1667M1 11L2.4401 14.23C2.66809 14.7421 3.12979 15.1904 3.75724 15.509C4.38469 15.8277 5.14474 15.9998 5.92552 16H8.29167M30.1667 6H31.9896M14.6719 15.375C14.6719 15.375 14.6719 24.125 8.29167 24.125M23.7865 15.375C23.7865 15.375 23.7865 24.125 30.1667 24.125M19.2292 15.375V24.125" stroke="black" stroke-width="1.5" stroke-linecap="round" stroke-linejoin="round"/>
</svg>
