<svg width="35" height="35" viewBox="0 0 35 35" fill="none" xmlns="http://www.w3.org/2000/svg">
<rect width="35" height="35" fill="#52796F"/>
<path fill-rule="evenodd" clip-rule="evenodd" d="M5.05163 29.9469C7.18954 32.0834 10.6254 32.0834 17.5 32.0834C24.3745 32.0834 27.8118 32.0834 29.9468 29.9469C32.0833 27.8134 32.0833 24.3746 32.0833 17.5C32.0833 10.6254 32.0833 7.18815 29.9468 5.05169C27.8133 2.91669 24.3745 2.91669 17.5 2.91669C10.6254 2.91669 7.18808 2.91669 5.05163 5.05169C2.91663 7.1896 2.91663 10.6254 2.91663 17.5C2.91663 24.3746 2.91663 27.8119 5.05163 29.9469ZM27.3437 23.3334C27.3437 23.6234 27.2285 23.9016 27.0234 24.1068C26.8182 24.3119 26.54 24.4271 26.25 24.4271H8.74996C8.45988 24.4271 8.18168 24.3119 7.97656 24.1068C7.77144 23.9016 7.65621 23.6234 7.65621 23.3334C7.65621 23.0433 7.77144 22.7651 7.97656 22.56C8.18168 22.3548 8.45988 22.2396 8.74996 22.2396H26.25C26.54 22.2396 26.8182 22.3548 27.0234 22.56C27.2285 22.7651 27.3437 23.0433 27.3437 23.3334ZM26.25 18.5938C26.54 18.5938 26.8182 18.4785 27.0234 18.2734C27.2285 18.0683 27.3437 17.7901 27.3437 17.5C27.3437 17.2099 27.2285 16.9317 27.0234 16.7266C26.8182 16.5215 26.54 16.4063 26.25 16.4063H8.74996C8.45988 16.4063 8.18168 16.5215 7.97656 16.7266C7.77144 16.9317 7.65621 17.2099 7.65621 17.5C7.65621 17.7901 7.77144 18.0683 7.97656 18.2734C8.18168 18.4785 8.45988 18.5938 8.74996 18.5938H26.25ZM27.3437 11.6667C27.3437 11.9568 27.2285 12.235 27.0234 12.4401C26.8182 12.6452 26.54 12.7604 26.25 12.7604H8.74996C8.45988 12.7604 8.18168 12.6452 7.97656 12.4401C7.77144 12.235 7.65621 11.9568 7.65621 11.6667C7.65621 11.3766 7.77144 11.0984 7.97656 10.8933C8.18168 10.6882 8.45988 10.5729 8.74996 10.5729H26.25C26.54 10.5729 26.8182 10.6882 27.0234 10.8933C27.2285 11.0984 27.3437 11.3766 27.3437 11.6667Z" fill="white"/>
</svg>
