<svg width="34" height="16" viewBox="0 0 34 16" fill="none" xmlns="http://www.w3.org/2000/svg">
<path d="M10.0341 1H6.04328C5.81648 1 5.59896 1.0862 5.43859 1.23964C5.27821 1.39308 5.18811 1.60119 5.18811 1.81818V13.8182C5.18811 13.9256 5.21023 14.032 5.25321 14.1313C5.29618 14.2306 5.35917 14.3207 5.43859 14.3967C5.518 14.4727 5.61227 14.533 5.71602 14.5741C5.81978 14.6152 5.93098 14.6364 6.04328 14.6364H10.0341C10.1464 14.6364 10.2576 14.6152 10.3614 14.5741C10.4651 14.533 10.5594 14.4727 10.6388 14.3967C10.7182 14.3207 10.7812 14.2306 10.8242 14.1313C10.8672 14.032 10.8893 13.9256 10.8893 13.8182V1.81818C10.8893 1.60119 10.7992 1.39308 10.6388 1.23964C10.4784 1.0862 10.2609 1 10.0341 1ZM27.1376 1H23.1468C22.92 1 22.7024 1.0862 22.5421 1.23964C22.3817 1.39308 22.2916 1.60119 22.2916 1.81818V13.8182C22.2916 13.9256 22.3137 14.032 22.3567 14.1313C22.3997 14.2306 22.4627 14.3207 22.5421 14.3967C22.6215 14.4727 22.7158 14.533 22.8195 14.5741C22.9233 14.6152 23.0345 14.6364 23.1468 14.6364H27.1376C27.2499 14.6364 27.3611 14.6152 27.4648 14.5741C27.5686 14.533 27.6629 14.4727 27.7423 14.3967C27.8217 14.3207 27.8847 14.2306 27.9277 14.1313C27.9706 14.032 27.9928 13.9256 27.9928 13.8182V1.81818C27.9928 1.60119 27.9027 1.39308 27.7423 1.23964C27.5819 1.0862 27.3644 1 27.1376 1Z" stroke="black" stroke-width="1.5" stroke-linecap="round" stroke-linejoin="round"/>
<path d="M10.8893 7.8182H22.2916M0.912231 11.0909V4.54548C0.912231 4.32848 1.00233 4.12037 1.16271 3.96693C1.32308 3.8135 1.5406 3.72729 1.76741 3.72729H4.33293C4.55973 3.72729 4.77725 3.8135 4.93763 3.96693C5.098 4.12037 5.1881 4.32848 5.1881 4.54548V11.0909C5.1881 11.3079 5.098 11.516 4.93763 11.6695C4.77725 11.8229 4.55973 11.9091 4.33293 11.9091H1.76741C1.5406 11.9091 1.32308 11.8229 1.16271 11.6695C1.00233 11.516 0.912231 11.3079 0.912231 11.0909ZM32.2686 11.0909V4.54548C32.2686 4.32848 32.1785 4.12037 32.0181 3.96693C31.8578 3.8135 31.6402 3.72729 31.4134 3.72729H28.8479C28.6211 3.72729 28.4036 3.8135 28.2432 3.96693C28.0828 4.12037 27.9927 4.32848 27.9927 4.54548V11.0909C27.9927 11.3079 28.0828 11.516 28.2432 11.6695C28.4036 11.8229 28.6211 11.9091 28.8479 11.9091H31.4134C31.6402 11.9091 31.8578 11.8229 32.0181 11.6695C32.1785 11.516 32.2686 11.3079 32.2686 11.0909Z" stroke="black" stroke-width="1.5" stroke-linecap="round" stroke-linejoin="round"/>
</svg>
