<svg width="31" height="31" viewBox="0 0 31 31" fill="none" xmlns="http://www.w3.org/2000/svg">
<path d="M28.625 18.4167V19.875C28.625 22.6604 27.0646 25.0812 24.7604 26.3062L25.7084 30.0833H22.7917L22.0625 27.1667H8.93752L8.20835 30.0833H5.29169L6.2396 26.3062C5.07175 25.6867 4.09484 24.7606 3.41393 23.6275C2.73301 22.4943 2.37383 21.197 2.37502 19.875V18.4167H0.916687V15.5H27.1667V5.29166C27.1667 4.90489 27.013 4.53396 26.7396 4.26047C26.4661 3.98698 26.0951 3.83333 25.7084 3.83333C24.9792 3.83333 24.425 4.32916 24.25 4.98541C25.1688 5.77291 25.7084 6.93958 25.7084 8.20833H16.9584C16.9584 7.04801 17.4193 5.93521 18.2398 5.11474C19.0602 4.29427 20.173 3.83333 21.3334 3.83333H21.5813C22.1792 2.14166 23.7979 0.916664 25.7084 0.916664C26.8687 0.916664 27.9815 1.3776 28.8019 2.19807C29.6224 3.01854 30.0834 4.13134 30.0834 5.29166V18.4167H28.625ZM25.7084 18.4167H5.29169V19.875C5.29169 21.0353 5.75262 22.1481 6.57309 22.9686C7.39357 23.7891 8.50636 24.25 9.66669 24.25H21.3334C22.4937 24.25 23.6065 23.7891 24.4269 22.9686C25.2474 22.1481 25.7084 21.0353 25.7084 19.875V18.4167Z" fill="black"/>
</svg>
