<svg width="35" height="35" viewBox="0 0 35 35" fill="none" xmlns="http://www.w3.org/2000/svg">
<path d="M15.5556 21.271H18.4722C20.2772 21.271 22.0082 20.5579 23.2845 19.2886C24.5608 18.0194 25.2778 16.2979 25.2778 14.5029C25.2778 12.7079 24.5608 10.9865 23.2845 9.7172C22.0082 8.44795 20.2772 7.73489 18.4722 7.73489H11.6667V27.0721H15.5556V21.271ZM1.94444 0H33.0556C33.5713 0 34.0658 0.203731 34.4305 0.566374C34.7951 0.929018 35 1.42087 35 1.93372V32.8733C35 33.3861 34.7951 33.878 34.4305 34.2406C34.0658 34.6033 33.5713 34.807 33.0556 34.807H1.94444C1.42875 34.807 0.934169 34.6033 0.569514 34.2406C0.20486 33.878 0 33.3861 0 32.8733V1.93372C0 1.42087 0.20486 0.929018 0.569514 0.566374C0.934169 0.203731 1.42875 0 1.94444 0ZM15.5556 11.6023H18.4722C19.2458 11.6023 19.9876 11.9079 20.5346 12.4519C21.0816 12.9959 21.3889 13.7336 21.3889 14.5029C21.3889 15.2722 21.0816 16.01 20.5346 16.5539C19.9876 17.0979 19.2458 17.4035 18.4722 17.4035H15.5556V11.6023Z" fill="black"/>
</svg>
