<svg width="35" height="35" viewBox="0 0 35 35" fill="none" xmlns="http://www.w3.org/2000/svg">
<path d="M20.5929 10.9605C19.9397 10.9605 19.3802 10.7277 18.9146 10.2621C18.449 9.79648 18.2166 9.23744 18.2174 8.58496C18.2174 7.93168 18.4502 7.37224 18.9158 6.90663C19.3814 6.44102 19.9405 6.20862 20.5929 6.20941C21.2462 6.20941 21.8057 6.44221 22.2713 6.90782C22.7369 7.37343 22.9693 7.93247 22.9685 8.58496C22.9685 9.23823 22.7357 9.79767 22.2701 10.2633C21.8045 10.7289 21.2454 10.9613 20.5929 10.9605ZM20.7711 21.3238C20.8899 20.9873 20.979 20.6456 21.0384 20.2988C21.0977 19.952 21.1274 19.6107 21.1274 19.2749C21.1274 18.6414 21.0384 18.0278 20.8602 17.4339C20.682 16.84 20.395 16.2857 19.9991 15.771L13.11 27.619C12.9516 27.916 12.7093 28.104 12.383 28.1832C12.0568 28.2624 11.7547 28.2228 11.4768 28.0644C11.1996 27.9061 11.0167 27.6638 10.928 27.3375C10.8393 27.0113 10.8738 26.7092 11.0314 26.4313L14.0008 21.2941L11.9816 20.1064L10.7938 22.1553C10.6354 22.4324 10.3927 22.6157 10.0657 22.7052C9.73867 22.7947 9.43697 22.7598 9.16062 22.6007C8.88347 22.4423 8.70016 22.1996 8.61068 21.8726C8.5212 21.5455 8.55604 21.2439 8.7152 20.9675L14.2384 11.4356C13.4861 10.6636 12.9219 9.78263 12.5458 8.79282C12.1696 7.80301 11.9816 6.7835 11.9816 5.7343C11.9816 5.2196 12.0263 4.71479 12.1158 4.21989C12.2053 3.72498 12.3486 3.23008 12.5458 2.73517C12.6646 2.39863 12.8922 2.18088 13.2287 2.08189C13.5653 1.98291 13.9018 2.0324 14.2384 2.23037C14.4561 2.36894 14.6093 2.5768 14.698 2.85395C14.7867 3.13109 14.782 3.40824 14.6838 3.68539C14.565 4.00213 14.4807 4.32877 14.4308 4.6653C14.3809 5.00184 14.3563 5.33837 14.3571 5.67491C14.3571 6.72411 14.6145 7.70917 15.1292 8.63009C15.6439 9.55101 16.3763 10.2882 17.3266 10.8417L19.9991 12.3858C21.2264 13.0985 22.1272 14.1231 22.7012 15.4598C23.2753 16.7964 23.5624 18.0483 23.5624 19.2155C23.5624 19.7302 23.5129 20.2402 23.4139 20.7454C23.3149 21.2506 23.1764 21.7403 22.9982 22.2147C22.8596 22.5512 22.6173 22.7741 22.2713 22.8834C21.9252 22.9927 21.5835 22.9479 21.2462 22.7492C21.0285 22.6106 20.8701 22.4075 20.7711 22.1398C20.6721 21.8722 20.6721 21.6002 20.7711 21.3238ZM17.6235 5.02163C17.1088 5.02163 16.6832 4.84347 16.3467 4.48714C16.0101 4.1308 15.8418 3.71508 15.8418 3.23997C15.8418 2.72527 16.02 2.29965 16.3763 1.96312C16.7327 1.62658 17.1484 1.45831 17.6235 1.45831C18.1382 1.45831 18.5638 1.63648 18.9004 1.99281C19.2369 2.34914 19.4052 2.76486 19.4052 3.23997C19.4052 3.75468 19.227 4.18029 18.8707 4.51683C18.5143 4.85337 18.0986 5.02163 17.6235 5.02163Z" fill="black"/>
</svg>
