<svg width="30" height="31" viewBox="0 0 30 31" fill="none" xmlns="http://www.w3.org/2000/svg">
<path d="M13.125 29.1667H2.91667C2.14312 29.1667 1.40125 28.8594 0.854272 28.3124C0.307291 27.7654 0 27.0235 0 26.25L0.0145833 5.83333C0.0145833 4.22917 1.29792 2.91667 2.91667 2.91667H4.375V0H7.29167V2.91667H18.9583V0H21.875V2.91667H23.3333C24.9375 2.91667 26.25 4.22917 26.25 5.83333V14.5833H23.3333V11.6667H2.91667V26.25H13.125V29.1667ZM27.8979 21.8604L28.9333 20.825C29.0685 20.6901 29.1758 20.5298 29.249 20.3534C29.3221 20.177 29.3598 19.9879 29.3598 19.7969C29.3598 19.6059 29.3221 19.4168 29.249 19.2403C29.1758 19.0639 29.0685 18.9037 28.9333 18.7688L27.8979 17.7333C27.763 17.5981 27.6027 17.4909 27.4263 17.4177C27.2499 17.3445 27.0608 17.3069 26.8698 17.3069C26.6788 17.3069 26.4897 17.3445 26.3133 17.4177C26.1368 17.4909 25.9766 17.5981 25.8417 17.7333L24.8063 18.7688L27.8979 21.8604ZM26.8625 22.8958L19.1333 30.625H16.0417V27.5333L23.7708 19.8042L26.8625 22.8958Z" fill="black"/>
</svg>
