<svg width="34" height="29" viewBox="0 0 34 29" fill="none" xmlns="http://www.w3.org/2000/svg">
<path d="M6 13.5H3.5C2.83696 13.5 2.20107 13.7634 1.73223 14.2322C1.26339 14.7011 1 15.337 1 16V28.5H8.5M6 13.5C6.66304 13.5 7.29893 13.7634 7.76777 14.2322C8.23661 14.7011 8.5 15.337 8.5 16V28.5M6 13.5V8.5C6 6.51088 6.79018 4.60322 8.1967 3.1967C9.60322 1.79018 11.5109 1 13.5 1H21C22.9891 1 24.8968 1.79018 26.3033 3.1967C27.7098 4.60322 28.5 6.51088 28.5 8.5V13.5M8.5 28.5H26M28.5 13.5H31C31.663 13.5 32.2989 13.7634 32.7678 14.2322C33.2366 14.7011 33.5 15.337 33.5 16V28.5H26M28.5 13.5C27.837 13.5 27.2011 13.7634 26.7322 14.2322C26.2634 14.7011 26 15.337 26 16V28.5M8.5 18.5H26" stroke="black" stroke-linecap="round" stroke-linejoin="round"/>
</svg>
