<svg width="28" height="24" viewBox="0 0 28 24" fill="none" xmlns="http://www.w3.org/2000/svg">
<path d="M16.25 23.25C14.7083 23.25 13.2654 22.9633 11.9212 22.39C10.5771 21.8167 9.395 21.0304 8.375 20.0312L10.1562 18.25C10.9479 19.0208 11.8646 19.6304 12.9062 20.0787C13.9479 20.5271 15.0625 20.7508 16.25 20.75C18.6667 20.75 20.7292 19.8958 22.4375 18.1875C24.1458 16.4792 25 14.4167 25 12C25 9.58333 24.1458 7.52083 22.4375 5.8125C20.7292 4.10417 18.6667 3.25 16.25 3.25C13.8333 3.25 11.7708 4.10417 10.0625 5.8125C8.35417 7.52083 7.5 9.58333 7.5 12V12.2188L9.78125 9.9375L11.5625 11.6875L6.25 17L0.9375 11.6875L2.71875 9.9375L5 12.25V12C5 10.4375 5.29708 8.97375 5.89125 7.60875C6.48542 6.24375 7.2875 5.05625 8.2975 4.04625C9.3075 3.03625 10.495 2.23458 11.86 1.64125C13.225 1.04792 14.6883 0.750833 16.25 0.75C17.8125 0.75 19.2763 1.04708 20.6413 1.64125C22.0063 2.23542 23.1938 3.03708 24.2038 4.04625C25.2138 5.05708 26.0158 6.24458 26.61 7.60875C27.2042 8.97292 27.5008 10.4367 27.5 12C27.5 15.125 26.4062 17.7812 24.2188 19.9688C22.0312 22.1562 19.375 23.25 16.25 23.25ZM13.75 17C13.3958 17 13.0987 16.88 12.8587 16.64C12.6187 16.4 12.4992 16.1033 12.5 15.75V12C12.5 11.6458 12.62 11.3487 12.86 11.1087C13.1 10.8687 13.3967 10.7492 13.75 10.75V9.5C13.75 8.8125 13.995 8.22375 14.485 7.73375C14.975 7.24375 15.5633 6.99917 16.25 7C16.9375 7 17.5263 7.245 18.0163 7.735C18.5063 8.225 18.7508 8.81333 18.75 9.5V10.75C19.1042 10.75 19.4013 10.87 19.6413 11.11C19.8813 11.35 20.0008 11.6467 20 12V15.75C20 16.1042 19.88 16.4013 19.64 16.6413C19.4 16.8813 19.1033 17.0008 18.75 17H13.75ZM15 10.75H17.5V9.5C17.5 9.14583 17.38 8.84875 17.14 8.60875C16.9 8.36875 16.6033 8.24917 16.25 8.25C15.8958 8.25 15.5987 8.37 15.3587 8.61C15.1187 8.85 14.9992 9.14667 15 9.5V10.75Z" fill="black"/>
</svg>
