<svg width="30" height="30" viewBox="0 0 30 30" fill="none" xmlns="http://www.w3.org/2000/svg">
<path d="M15 0C23.2845 0 30 6.7155 30 15C30 23.2845 23.2845 30 15 30C6.7155 30 0 23.2845 0 15C0 6.7155 6.7155 0 15 0ZM15 3C11.8174 3 8.76516 4.26428 6.51472 6.51472C4.26428 8.76516 3 11.8174 3 15C3 18.1826 4.26428 21.2348 6.51472 23.4853C8.76516 25.7357 11.8174 27 15 27C18.1826 27 21.2348 25.7357 23.4853 23.4853C25.7357 21.2348 27 18.1826 27 15C27 11.8174 25.7357 8.76516 23.4853 6.51472C21.2348 4.26428 18.1826 3 15 3ZM19.5 7.5C19.8978 7.5 20.2794 7.65804 20.5607 7.93934C20.842 8.22064 21 8.60218 21 9C21 9.39782 20.842 9.77936 20.5607 10.0607C20.2794 10.342 19.8978 10.5 19.5 10.5H17.1975C17.466 10.965 17.6745 11.4675 17.811 12H19.5C19.8978 12 20.2794 12.158 20.5607 12.4393C20.842 12.7206 21 13.1022 21 13.5C21 13.8978 20.842 14.2794 20.5607 14.5607C20.2794 14.842 19.8978 15 19.5 15H17.811C17.5806 15.8893 17.1496 16.7139 16.5511 17.4108C15.9525 18.1076 15.2023 18.6581 14.358 19.02L17.4 21.3C17.7183 21.5387 17.9287 21.894 17.9849 22.2879C18.0412 22.6817 17.9387 23.0817 17.7 23.4C17.4613 23.7183 17.106 23.9287 16.7121 23.9849C16.3183 24.0412 15.9183 23.9387 15.6 23.7L9.615 19.2105C9.35907 19.0224 9.16917 18.7582 9.07246 18.4556C8.97574 18.1531 8.97715 17.8277 9.0765 17.526C9.2775 16.9245 9.8565 16.4925 10.5165 16.5H12C12.5266 16.5 13.0439 16.3614 13.5 16.0981C13.956 15.8348 14.3347 15.456 14.598 15H10.5C10.1022 15 9.72064 14.842 9.43934 14.5607C9.15804 14.2794 9 13.8978 9 13.5C9 13.1022 9.15804 12.7206 9.43934 12.4393C9.72064 12.158 10.1022 12 10.5 12H14.598C14.3347 11.544 13.956 11.1652 13.5 10.9019C13.0439 10.6386 12.5266 10.5 12 10.5H10.5C10.1022 10.5 9.72064 10.342 9.43934 10.0607C9.15804 9.77936 9 9.39782 9 9C9 8.60218 9.15804 8.22064 9.43934 7.93934C9.72064 7.65804 10.1022 7.5 10.5 7.5H19.5Z" fill="#3B413D"/>
</svg>
