<svg width="30" height="28" viewBox="0 0 30 28" fill="none" xmlns="http://www.w3.org/2000/svg">
<path d="M13.6744 0.812524C14.026 0.461016 14.5028 0.26355 15 0.26355C15.4972 0.26355 15.974 0.461016 16.3256 0.812524L20.625 5.1119V2.68752C20.625 2.43888 20.7238 2.20043 20.8996 2.02461C21.0754 1.8488 21.3139 1.75002 21.5625 1.75002H23.4375C23.6862 1.75002 23.9246 1.8488 24.1004 2.02461C24.2763 2.20043 24.375 2.43888 24.375 2.68752V8.8619L28.7888 13.2738C28.8759 13.3609 28.9451 13.4644 28.9923 13.5783C29.0394 13.6922 29.0637 13.8143 29.0637 13.9375C29.0637 14.0608 29.0394 14.1829 28.9923 14.2967C28.9451 14.4106 28.8759 14.5141 28.7888 14.6013C28.7016 14.6884 28.5981 14.7576 28.4842 14.8048C28.3704 14.8519 28.2483 14.8762 28.125 14.8762C28.0018 14.8762 27.8797 14.8519 27.7658 14.8048C27.6519 14.7576 27.5484 14.6884 27.4613 14.6013L15 2.13815L5.62502 11.5131V23.3125C5.62502 23.5612 5.7238 23.7996 5.89961 23.9754C6.07543 24.1513 6.31388 24.25 6.56252 24.25H14.0625C14.3112 24.25 14.5496 24.3488 14.7254 24.5246C14.9013 24.7004 15 24.9389 15 25.1875C15 25.4362 14.9013 25.6746 14.7254 25.8504C14.5496 26.0263 14.3112 26.125 14.0625 26.125H6.56252C5.8166 26.125 5.10123 25.8287 4.57379 25.3013C4.04634 24.7738 3.75002 24.0584 3.75002 23.3125V13.3881L2.53877 14.6013C2.45161 14.6884 2.34813 14.7576 2.23424 14.8048C2.12036 14.8519 1.99829 14.8762 1.87502 14.8762C1.75175 14.8762 1.62969 14.8519 1.51581 14.8048C1.40192 14.7576 1.29844 14.6884 1.21127 14.6013C1.12411 14.5141 1.05497 14.4106 1.00779 14.2967C0.96062 14.1829 0.93634 14.0608 0.93634 13.9375C0.93634 13.8143 0.96062 13.6922 1.00779 13.5783C1.05497 13.4644 1.12411 13.3609 1.21127 13.2738L13.6744 0.812524Z" fill="black"/>
<path d="M22.2863 15.7375C22.6238 14.5881 24.2513 14.5881 24.5906 15.7375L24.6713 16.015C24.7216 16.1872 24.8099 16.3458 24.9297 16.4793C25.0494 16.6128 25.1976 16.7178 25.3633 16.7865C25.5289 16.8552 25.7079 16.8859 25.887 16.8764C26.0661 16.8668 26.2407 16.8172 26.3981 16.7313L26.6531 16.5925C27.705 16.0188 28.8563 17.17 28.2844 18.2219L28.1438 18.4769C28.0582 18.6342 28.0089 18.8087 27.9995 18.9876C27.9901 19.1665 28.0209 19.3452 28.0896 19.5106C28.1583 19.676 28.2631 19.824 28.3964 19.9436C28.5297 20.0632 28.6881 20.1515 28.86 20.2019L29.1394 20.2863C30.2869 20.6238 30.2869 22.2513 29.1394 22.5906L28.8581 22.6713C28.6863 22.7221 28.5281 22.8107 28.395 22.9306C28.2619 23.0505 28.1574 23.1987 28.089 23.3644C28.0207 23.53 27.9903 23.7088 28.0001 23.8877C28.0099 24.0666 28.0596 24.241 28.1456 24.3981L28.2844 24.6531C28.8563 25.705 27.705 26.8563 26.6531 26.2844L26.3981 26.1438C26.2408 26.0582 26.0663 26.0089 25.8874 25.9995C25.7086 25.9901 25.5299 26.0209 25.3644 26.0896C25.199 26.1583 25.0511 26.2631 24.9314 26.3964C24.8118 26.5297 24.7236 26.6881 24.6731 26.86L24.5888 27.1394C24.2513 28.2869 22.6238 28.2869 22.2844 27.1394L22.2038 26.8581C22.153 26.6863 22.0644 26.5281 21.9444 26.395C21.8245 26.2619 21.6763 26.1574 21.5107 26.089C21.3451 26.0207 21.1663 25.9903 20.9874 26.0001C20.8085 26.0099 20.6341 26.0596 20.4769 26.1456L20.2219 26.2844C19.17 26.8563 18.0188 25.705 18.5906 24.6531L18.7313 24.3981C18.8169 24.2408 18.8662 24.0663 18.8756 23.8874C18.8849 23.7086 18.8541 23.5299 18.7855 23.3644C18.7168 23.199 18.6119 23.0511 18.4786 22.9314C18.3453 22.8118 18.1869 22.7236 18.015 22.6731L17.7375 22.5906C16.5881 22.2513 16.5881 20.6238 17.7375 20.2844L18.015 20.2038C18.1872 20.1534 18.3458 20.0651 18.4793 19.9454C18.6128 19.8256 18.7178 19.6775 18.7865 19.5118C18.8552 19.3461 18.8859 19.1672 18.8764 18.9881C18.8668 18.809 18.8172 18.6343 18.7313 18.4769L18.5925 18.2219C18.0188 17.17 19.17 16.0188 20.2219 16.5906L20.4769 16.7313C20.6342 16.8169 20.8087 16.8662 20.9876 16.8756C21.1665 16.8849 21.3452 16.8541 21.5106 16.7855C21.676 16.7168 21.824 16.6119 21.9436 16.4786C22.0632 16.3453 22.1515 16.1869 22.2019 16.015L22.2863 15.7375ZM26.25 21.4375C26.25 21.0682 26.1773 20.7025 26.0359 20.3612C25.8946 20.02 25.6874 19.7099 25.4263 19.4488C25.1651 19.1876 24.855 18.9804 24.5138 18.8391C24.1726 18.6978 23.8069 18.625 23.4375 18.625C23.0682 18.625 22.7025 18.6978 22.3612 18.8391C22.02 18.9804 21.7099 19.1876 21.4488 19.4488C21.1876 19.7099 20.9804 20.02 20.8391 20.3612C20.6978 20.7025 20.625 21.0682 20.625 21.4375C20.625 22.1834 20.9213 22.8988 21.4488 23.4263C21.9762 23.9537 22.6916 24.25 23.4375 24.25C24.1834 24.25 24.8988 23.9537 25.4263 23.4263C25.9537 22.8988 26.25 22.1834 26.25 21.4375Z" fill="black"/>
</svg>
